<svg width="40" height="40" viewBox="0 0 40 40" fill="none" xmlns="http://www.w3.org/2000/svg">
<rect width="40" height="40" rx="7" fill="#101010"/>
<path d="M13.516 7.29937C13.5592 7.52055 13.6455 7.73106 13.77 7.91885C13.8946 8.10664 14.055 8.26803 14.242 8.39378C14.429 8.51953 14.639 8.60718 14.8599 8.6517C15.0808 8.69622 15.3083 8.69675 15.5294 8.65326C18.6547 8.0448 21.8937 8.70222 24.5344 10.481C27.1752 12.2598 29.0016 15.0144 29.6121 18.1393C29.7131 18.5718 29.9778 18.9483 30.3506 19.1897C30.7234 19.4312 31.1753 19.5186 31.6113 19.4338C32.0473 19.349 32.4334 19.0985 32.6886 18.7349C32.9437 18.3713 33.0479 17.923 32.9794 17.4841C32.5918 15.494 31.816 13.5998 30.6961 11.9096C29.5763 10.2194 28.1344 8.76646 26.4529 7.63368C24.7714 6.5009 22.8831 5.71052 20.8961 5.3077C18.909 4.90487 16.862 4.8975 14.8721 5.28599C14.6507 5.32887 14.44 5.41501 14.2519 5.53947C14.0639 5.66393 13.9023 5.82427 13.7763 6.0113C13.6503 6.19833 13.5625 6.40837 13.5178 6.6294C13.4732 6.85043 13.4726 7.0781 13.516 7.29937V7.29937Z" fill="white"/>
<path d="M14.5012 12.3481C14.5441 12.5695 14.6302 12.7802 14.7547 12.9682C14.8791 13.1563 15.0395 13.3179 15.2265 13.4439C15.4135 13.5699 15.6236 13.6577 15.8446 13.7024C16.0656 13.747 16.2933 13.7476 16.5146 13.7042C18.3004 13.356 20.1513 13.7314 21.6603 14.7478C23.1694 15.7642 24.2129 17.3384 24.5615 19.1241C24.5971 19.3521 24.6783 19.5706 24.8003 19.7665C24.9223 19.9624 25.0826 20.1317 25.2715 20.2642C25.4604 20.3968 25.6741 20.4899 25.8998 20.538C26.1255 20.586 26.3586 20.5881 26.5851 20.544C26.8116 20.5 27.0269 20.4107 27.2182 20.2815C27.4094 20.1523 27.5726 19.9859 27.698 19.7921C27.8235 19.5984 27.9086 19.3814 27.9482 19.1541C27.9878 18.9267 27.9812 18.6937 27.9288 18.469C27.4054 15.7905 25.8398 13.4294 23.5761 11.9049C21.3125 10.3804 18.5361 9.81716 15.8573 10.3391C15.4111 10.4257 15.0175 10.686 14.7632 11.0628C14.5089 11.4395 14.4147 11.9019 14.5012 12.3481V12.3481Z" fill="white"/>
<path d="M7 34.5127V17.1217C7 16.9005 7.08789 16.6883 7.24432 16.5318C7.40076 16.3754 7.61294 16.2875 7.83417 16.2875H15.2588C16.5054 16.2534 17.7474 16.4527 18.9208 16.8749C19.8155 17.1929 20.5959 17.7689 21.1635 18.5302C21.6771 19.2693 21.9424 20.1526 21.9212 21.0524C21.9297 21.7199 21.7714 22.3789 21.4605 22.9696C21.152 23.5477 20.7104 24.0439 20.1721 24.4174C19.5892 24.8169 18.9296 25.0906 18.2351 25.221V25.4088C19.0199 25.4285 19.7878 25.6408 20.4713 26.0268C21.1334 26.4008 21.6848 26.9432 22.0697 27.5991C22.4796 28.3131 22.6858 29.1258 22.6659 29.9488C22.6804 30.9372 22.3957 31.907 21.8492 32.7308C21.271 33.5728 20.4694 34.2368 19.5344 34.6481C18.409 35.1393 17.1895 35.3779 15.9619 35.3469H7.82762C7.60752 35.3451 7.39703 35.2565 7.242 35.1002C7.08698 34.944 6.99999 34.7328 7 34.5127V34.5127ZM12.1666 23.996H14.2892C14.6999 24.0017 15.1078 23.9276 15.4902 23.7776C15.8146 23.6514 16.0968 23.4365 16.3048 23.1574C16.505 22.8665 16.6068 22.5191 16.5952 22.166C16.6091 21.9059 16.5589 21.6463 16.4488 21.4102C16.3388 21.1741 16.1723 20.9687 15.9641 20.8121C15.4959 20.4855 14.9339 20.3206 14.3634 20.3427H12.1666V23.996ZM12.1666 31.2197H14.5884C15.2749 31.2685 15.959 31.0963 16.5406 30.7283C16.7599 30.5596 16.9344 30.3394 17.0486 30.0873C17.1629 29.8352 17.2134 29.5589 17.1957 29.2827C17.2089 28.8826 17.1016 28.4878 16.8878 28.1494C16.6739 27.831 16.3697 27.5839 16.0143 27.4397C15.584 27.2682 15.1235 27.1857 14.6604 27.1973H12.1666V31.2197Z" fill="white"/>
</svg>
