<svg xmlns="http://www.w3.org/2000/svg" viewBox="0 0 55.875 14.017"><defs><style>.cls-1{fill:#fff;}</style></defs><g id="Layer_2" data-name="Layer 2"><g id="Layer_1-2" data-name="Layer 1"><path class="cls-1" d="M22.384,1.054a.785.785,0,0,0,.922.62,5.5,5.5,0,0,1,6.449,4.344.786.786,0,0,0,1.542-.3A7.068,7.068,0,0,0,23.005.132.785.785,0,0,0,22.384,1.054Z"/><path class="cls-1" d="M22.835,3.366a.785.785,0,0,0,.922.621,3.142,3.142,0,0,1,3.685,2.482.786.786,0,1,0,1.542-.3,4.714,4.714,0,0,0-5.528-3.723A.785.785,0,0,0,22.835,3.366Z"/><path class="cls-1" d="M0,13.518V5.55a.38.38,0,0,1,.38-.38H1.989a.38.38,0,0,1,.38.38V8.436a.143.143,0,0,0,.143.143H5.363a.143.143,0,0,0,.143-.143V5.55a.38.38,0,0,1,.38-.38H7.5a.38.38,0,0,1,.379.38v7.968a.38.38,0,0,1-.379.38H5.886a.38.38,0,0,1-.38-.38V10.632a.143.143,0,0,0-.143-.144H2.512a.143.143,0,0,0-.143.144v2.886a.38.38,0,0,1-.38.38H.38A.38.38,0,0,1,0,13.518Z"/><path class="cls-1" d="M9,13.515V5.552a.383.383,0,0,1,.383-.382h3.384a3.849,3.849,0,0,1,1.7.354A2.648,2.648,0,0,1,15.6,6.542a3,3,0,0,1,.4,1.594,2.847,2.847,0,0,1-.416,1.581,2.568,2.568,0,0,1-1.163.972,4.322,4.322,0,0,1-1.745.328H10.815a.383.383,0,0,1-.383-.383V9.558a.382.382,0,0,1,.383-.382h1.39a2.111,2.111,0,0,0,.713-.105.891.891,0,0,0,.457-.334,1.036,1.036,0,0,0,.16-.6,1.075,1.075,0,0,0-.16-.611.929.929,0,0,0-.457-.35,2.006,2.006,0,0,0-.713-.112H11.37v6.452a.384.384,0,0,1-.383.383h-1.6A.384.384,0,0,1,9,13.515Zm5.222-3.424,1.766,3.241a.383.383,0,0,1-.335.566h-1.7a.384.384,0,0,1-.338-.2L11.89,10.454a.383.383,0,0,1,.338-.562h1.659A.381.381,0,0,1,14.222,10.091Z"/><path class="cls-1" d="M19.4,13.516V5.552a.382.382,0,0,1,.382-.382h3.4a4.583,4.583,0,0,1,1.677.269,2.2,2.2,0,0,1,1.027.758,1.944,1.944,0,0,1,.347,1.155,1.835,1.835,0,0,1-.211.878,1.89,1.89,0,0,1-.59.663,2.33,2.33,0,0,1-.887.368v.086a2.194,2.194,0,0,1,1.024.283,1.975,1.975,0,0,1,.732.72,2.061,2.061,0,0,1,.273,1.076A2.245,2.245,0,0,1,26.2,12.7a2.514,2.514,0,0,1-1.06.878,3.847,3.847,0,0,1-1.636.32H19.779A.382.382,0,0,1,19.4,13.516ZM21.766,8.7h.972a1.451,1.451,0,0,0,.55-.1.849.849,0,0,0,.373-.284.757.757,0,0,0,.133-.454.727.727,0,0,0-.289-.62,1.2,1.2,0,0,0-.733-.215H21.766Zm0,3.308h1.109a1.476,1.476,0,0,0,.894-.225.773.773,0,0,0,.3-.662.915.915,0,0,0-.141-.519.881.881,0,0,0-.4-.325,1.569,1.569,0,0,0-.62-.111H21.766Z"/><path class="cls-1" d="M30.6,14.017a3.682,3.682,0,0,1-1.824-.424,2.88,2.88,0,0,1-1.163-1.185,3.7,3.7,0,0,1-.4-1.766,3.709,3.709,0,0,1,.4-1.767,2.883,2.883,0,0,1,1.163-1.184,4.135,4.135,0,0,1,3.648,0,2.889,2.889,0,0,1,1.163,1.184,3.71,3.71,0,0,1,.405,1.767,3.7,3.7,0,0,1-.405,1.766,2.886,2.886,0,0,1-1.163,1.185A3.679,3.679,0,0,1,30.6,14.017Zm.017-1.739a.73.73,0,0,0,.515-.2,1.288,1.288,0,0,0,.337-.571,2.878,2.878,0,0,0,.119-.882,2.881,2.881,0,0,0-.119-.885,1.288,1.288,0,0,0-.337-.568.73.73,0,0,0-.515-.2.784.784,0,0,0-.541.2,1.253,1.253,0,0,0-.345.568,2.881,2.881,0,0,0-.119.885,2.878,2.878,0,0,0,.119.882,1.253,1.253,0,0,0,.345.571A.784.784,0,0,0,30.613,12.278Z"/><path class="cls-1" d="M38.1,14.017a3.682,3.682,0,0,1-1.824-.424,2.88,2.88,0,0,1-1.163-1.185,3.7,3.7,0,0,1-.4-1.766,3.709,3.709,0,0,1,.4-1.767,2.883,2.883,0,0,1,1.163-1.184,4.135,4.135,0,0,1,3.648,0,2.889,2.889,0,0,1,1.163,1.184,3.71,3.71,0,0,1,.405,1.767,3.7,3.7,0,0,1-.405,1.766,2.886,2.886,0,0,1-1.163,1.185A3.679,3.679,0,0,1,38.1,14.017Zm.017-1.739a.73.73,0,0,0,.515-.2,1.288,1.288,0,0,0,.337-.571,2.878,2.878,0,0,0,.119-.882,2.881,2.881,0,0,0-.119-.885,1.288,1.288,0,0,0-.337-.568.73.73,0,0,0-.515-.2.784.784,0,0,0-.541.2,1.253,1.253,0,0,0-.345.568,2.881,2.881,0,0,0-.119.885,2.878,2.878,0,0,0,.119.882,1.253,1.253,0,0,0,.345.571A.784.784,0,0,0,38.113,12.278Z"/><path class="cls-1" d="M42.443,13.516V5.552a.382.382,0,0,1,.381-.382h1.59a.381.381,0,0,1,.381.382v7.964a.381.381,0,0,1-.381.382h-1.59A.382.382,0,0,1,42.443,13.516Zm2.113-1.169.018-2.8h.306L46.351,7.51a.383.383,0,0,1,.31-.158h1.668a.381.381,0,0,1,.3.615l-2.181,2.811h-.665Zm1.817,1.36-1.25-2.158a.382.382,0,0,1,.05-.449l1-1.095a.382.382,0,0,1,.605.057l2.028,3.252a.382.382,0,0,1-.323.584H46.7A.381.381,0,0,1,46.373,13.707Z"/><path class="cls-1" d="M55.7,9.483H53.54a.6.6,0,0,0-.141-.345.823.823,0,0,0-.317-.224,1.126,1.126,0,0,0-.429-.079,1.144,1.144,0,0,0-.52.11.337.337,0,0,0-.213.316.347.347,0,0,0,.125.268,1.03,1.03,0,0,0,.5.193l1.33.238a3.086,3.086,0,0,1,1.5.616,1.473,1.473,0,0,1,.5,1.157,1.9,1.9,0,0,1-.416,1.212,2.625,2.625,0,0,1-1.121.792,4.364,4.364,0,0,1-1.617.28,3.926,3.926,0,0,1-2.346-.614,2.19,2.19,0,0,1-.944-1.619h2.335a.665.665,0,0,0,.31.48,1.2,1.2,0,0,0,.662.168,1.132,1.132,0,0,0,.535-.112.336.336,0,0,0,.03-.613,1.685,1.685,0,0,0-.565-.179l-1.159-.205a2.776,2.776,0,0,1-1.5-.664A1.683,1.683,0,0,1,49.584,9.4a1.835,1.835,0,0,1,.361-1.158,2.262,2.262,0,0,1,1.044-.724A4.693,4.693,0,0,1,52.6,7.267a3.779,3.779,0,0,1,2.239.588A2,2,0,0,1,55.7,9.483Z"/></g></g></svg>