<svg width="56" height="15" viewBox="0 0 56 15" fill="none" xmlns="http://www.w3.org/2000/svg">
<g clip-path="url(#clip0_49_14)">
<path d="M22.384 1.054C22.4037 1.15529 22.4433 1.25169 22.5003 1.33769C22.5574 1.42369 22.6308 1.49759 22.7164 1.55518C22.8021 1.61277 22.8982 1.6529 22.9994 1.67329C23.1005 1.69368 23.2047 1.69392 23.306 1.674C24.7372 1.39537 26.2204 1.69642 27.4297 2.511C28.639 3.32557 29.4754 4.587 29.755 6.018C29.8012 6.21608 29.9225 6.38851 30.0932 6.49906C30.2639 6.60961 30.4709 6.64968 30.6705 6.61084C30.8702 6.57199 31.047 6.45727 31.1638 6.29077C31.2806 6.12427 31.3284 5.91897 31.297 5.718C31.1195 4.80666 30.7642 3.93921 30.2514 3.16521C29.7386 2.39122 29.0783 1.72584 28.3083 1.2071C27.5382 0.688356 26.6735 0.326412 25.7636 0.141944C24.8536 -0.0425247 23.9162 -0.045902 23.005 0.132005C22.9036 0.151641 22.8071 0.191087 22.721 0.248082C22.6349 0.305077 22.5609 0.378502 22.5032 0.464149C22.4455 0.549797 22.4053 0.645985 22.3848 0.747202C22.3644 0.84842 22.3641 0.952678 22.384 1.054Z" fill="black"/>
<path d="M22.835 3.366C22.8547 3.46738 22.8941 3.56389 22.9511 3.65C23.0081 3.73611 23.0815 3.81012 23.1672 3.86781C23.2528 3.9255 23.349 3.96572 23.4502 3.98617C23.5514 4.00662 23.6557 4.00691 23.757 3.987C24.5748 3.82758 25.4224 3.99949 26.1135 4.46494C26.8045 4.93039 27.2824 5.65125 27.442 6.469C27.4583 6.57341 27.4955 6.67347 27.5514 6.76318C27.6073 6.85289 27.6806 6.93041 27.7671 6.99111C27.8537 7.05181 27.9515 7.09444 28.0549 7.11646C28.1582 7.13847 28.265 7.13942 28.3687 7.11924C28.4725 7.09905 28.5711 7.05816 28.6586 6.999C28.7462 6.93984 28.8209 6.86363 28.8784 6.77492C28.9358 6.68621 28.9748 6.58683 28.9929 6.48272C29.0111 6.37861 29.0081 6.27191 28.984 6.169C28.7444 4.94241 28.0274 3.86119 26.9908 3.16305C25.9542 2.46491 24.6828 2.20699 23.456 2.446C23.2517 2.48568 23.0715 2.60489 22.955 2.77742C22.8386 2.94994 22.7954 3.16165 22.835 3.366Z" fill="black"/>
<path d="M0 13.518V5.55C0 5.44922 0.0400356 5.35256 0.111299 5.2813C0.182563 5.21003 0.279218 5.17 0.38 5.17H1.989C2.08978 5.17 2.18644 5.21003 2.2577 5.2813C2.32896 5.35256 2.369 5.44922 2.369 5.55V8.436C2.369 8.45478 2.3727 8.47337 2.37989 8.49072C2.38707 8.50807 2.3976 8.52384 2.41088 8.53711C2.42416 8.55039 2.43993 8.56093 2.45728 8.56811C2.47463 8.5753 2.49322 8.579 2.512 8.579H5.363C5.38178 8.579 5.40037 8.5753 5.41772 8.56811C5.43507 8.56093 5.45084 8.55039 5.46412 8.53711C5.47739 8.52384 5.48793 8.50807 5.49511 8.49072C5.5023 8.47337 5.506 8.45478 5.506 8.436V5.55C5.506 5.44922 5.54604 5.35256 5.6173 5.2813C5.68856 5.21003 5.78522 5.17 5.886 5.17H7.5C7.60061 5.17026 7.69701 5.21042 7.76805 5.28165C7.8391 5.35289 7.879 5.44939 7.879 5.55V13.518C7.879 13.6186 7.8391 13.7151 7.76805 13.7863C7.69701 13.8576 7.60061 13.8977 7.5 13.898H5.886C5.78522 13.898 5.68856 13.858 5.6173 13.7867C5.54604 13.7154 5.506 13.6188 5.506 13.518V10.632C5.50613 10.6131 5.50253 10.5944 5.4954 10.577C5.48828 10.5595 5.47776 10.5436 5.46447 10.5302C5.45118 10.5168 5.43537 10.5062 5.41796 10.499C5.40054 10.4917 5.38186 10.488 5.363 10.488H2.512C2.49314 10.488 2.47446 10.4917 2.45704 10.499C2.43963 10.5062 2.42382 10.5168 2.41053 10.5302C2.39724 10.5436 2.38672 10.5595 2.3796 10.577C2.37247 10.5944 2.36887 10.6131 2.369 10.632V13.518C2.369 13.6188 2.32896 13.7154 2.2577 13.7867C2.18644 13.858 2.08978 13.898 1.989 13.898H0.38C0.279218 13.898 0.182563 13.858 0.111299 13.7867C0.0400356 13.7154 0 13.6188 0 13.518Z" fill="black"/>
<path d="M9 13.515V5.552C9.00026 5.4506 9.04073 5.35344 9.11253 5.28183C9.18433 5.21022 9.2816 5.17 9.383 5.17H12.767C13.3532 5.15697 13.9347 5.27805 14.467 5.524C14.9362 5.74505 15.3302 6.09903 15.6 6.542C15.8791 7.02575 16.0176 7.57779 16 8.136C16.0189 8.69234 15.8742 9.242 15.584 9.717C15.303 10.1506 14.8976 10.4894 14.421 10.689C13.8683 10.9179 13.2741 11.0296 12.676 11.017H10.815C10.7647 11.017 10.7149 11.0071 10.6684 10.9878C10.622 10.9686 10.5797 10.9404 10.5442 10.9048C10.5086 10.8693 10.4804 10.827 10.4612 10.7806C10.4419 10.7341 10.432 10.6843 10.432 10.634V9.558C10.432 9.50775 10.4419 9.458 10.4612 9.41159C10.4804 9.36518 10.5087 9.32302 10.5442 9.28753C10.5798 9.25205 10.622 9.22393 10.6685 9.20479C10.715 9.18566 10.7648 9.17587 10.815 9.176H12.205C12.4469 9.18213 12.6881 9.14661 12.918 9.071C13.1026 9.0123 13.263 8.89505 13.375 8.737C13.4884 8.55807 13.5443 8.34866 13.535 8.137C13.5441 7.92191 13.4883 7.70905 13.375 7.526C13.2636 7.36389 13.1035 7.24134 12.918 7.176C12.6891 7.09587 12.4475 7.05792 12.205 7.064H11.37V13.516C11.3697 13.6175 11.3293 13.7148 11.2575 13.7865C11.1858 13.8583 11.0885 13.8987 10.987 13.899H9.387C9.33632 13.8994 9.28606 13.8898 9.23913 13.8706C9.19219 13.8515 9.14951 13.8233 9.11353 13.7876C9.07755 13.7519 9.049 13.7094 9.02951 13.6626C9.01003 13.6159 9 13.5657 9 13.515ZM14.222 10.091L15.988 13.332C16.0197 13.3902 16.0357 13.4557 16.0345 13.5219C16.0333 13.5882 16.0149 13.653 15.9811 13.7101C15.9474 13.7671 15.8994 13.8144 15.8419 13.8474C15.7844 13.8803 15.7193 13.8978 15.653 13.898H13.953C13.8839 13.8982 13.816 13.8797 13.7565 13.8445C13.697 13.8093 13.6481 13.7587 13.615 13.698L11.89 10.454C11.8592 10.3957 11.8439 10.3304 11.8457 10.2644C11.8476 10.1985 11.8664 10.1341 11.9004 10.0776C11.9344 10.0211 11.9824 9.97428 12.0398 9.94176C12.0972 9.90925 12.162 9.89211 12.228 9.892H13.887C13.9556 9.89195 14.0229 9.91041 14.0819 9.94544C14.1408 9.98046 14.1892 10.0308 14.222 10.091Z" fill="black"/>
<path d="M19.4 13.516V5.552C19.4 5.45069 19.4403 5.35352 19.5119 5.28189C19.5835 5.21025 19.6807 5.17 19.782 5.17H23.182C23.7529 5.1544 24.3217 5.24563 24.859 5.439C25.2687 5.58462 25.6261 5.84839 25.886 6.197C26.1212 6.53548 26.2427 6.93995 26.233 7.352C26.2369 7.65767 26.1644 7.95948 26.022 8.23C25.8808 8.4947 25.6785 8.72196 25.432 8.893C25.1651 9.07593 24.863 9.20125 24.545 9.261V9.347C24.9044 9.35602 25.256 9.4532 25.569 9.63C25.8722 9.80127 26.1248 10.0497 26.301 10.35C26.4887 10.6769 26.5831 11.0491 26.574 11.426C26.5807 11.8787 26.4503 12.3228 26.2 12.7C25.9352 13.0856 25.5682 13.3896 25.14 13.578C24.6246 13.803 24.0662 13.9122 23.504 13.898H19.779C19.6782 13.8972 19.5818 13.8566 19.5108 13.7851C19.4399 13.7135 19.4 13.6168 19.4 13.516ZM21.766 8.7H22.738C22.9261 8.70263 23.1129 8.66867 23.288 8.6C23.4365 8.54222 23.5658 8.4438 23.661 8.316C23.7527 8.18276 23.7993 8.02366 23.794 7.862C23.8004 7.74288 23.7774 7.62401 23.727 7.51589C23.6766 7.40776 23.6004 7.3137 23.505 7.242C23.2906 7.0924 23.0333 7.01691 22.772 7.027H21.766V8.7ZM21.766 12.008H22.875C23.1894 12.0304 23.5027 11.9515 23.769 11.783C23.8695 11.7057 23.9494 11.6049 24.0017 11.4895C24.054 11.374 24.0771 11.2475 24.069 11.121C24.0751 10.9378 24.026 10.757 23.928 10.602C23.8301 10.4562 23.6908 10.343 23.528 10.277C23.331 10.1985 23.1201 10.1607 22.908 10.166H21.766V12.008Z" fill="black"/>
<path d="M30.6 14.017C29.9656 14.0352 29.3373 13.8892 28.776 13.593C28.2804 13.3207 27.876 12.9086 27.613 12.408C27.3355 11.8616 27.198 11.2547 27.213 10.642C27.1982 10.029 27.3357 9.42188 27.613 8.875C27.8763 8.37487 28.2807 7.96314 28.776 7.691C29.3436 7.41203 29.9676 7.26697 30.6 7.26697C31.2324 7.26697 31.8564 7.41203 32.424 7.691C32.9191 7.96343 33.3235 8.37508 33.587 8.875C33.8661 9.42145 34.0052 10.0286 33.992 10.642C34.0055 11.2551 33.8663 11.862 33.587 12.408C33.3238 12.9084 32.9194 13.3205 32.424 13.593C31.8628 13.8893 31.2344 14.0354 30.6 14.017ZM30.617 12.278C30.8083 12.2814 30.9932 12.2096 31.132 12.078C31.2923 11.9203 31.4084 11.7235 31.469 11.507C31.5542 11.221 31.5943 10.9234 31.588 10.625C31.5946 10.3256 31.5544 10.027 31.469 9.74C31.408 9.5246 31.2918 9.32883 31.132 9.172C30.9932 9.04044 30.8083 8.96863 30.617 8.972C30.4178 8.9675 30.2244 9.03901 30.076 9.172C29.912 9.32683 29.7928 9.52307 29.731 9.74C29.6456 10.027 29.6055 10.3256 29.612 10.625C29.6057 10.9234 29.6459 11.221 29.731 11.507C29.7923 11.725 29.9115 11.9223 30.076 12.078C30.2234 12.21 30.4152 12.2815 30.613 12.278H30.617Z" fill="black"/>
<path d="M38.1 14.017C37.4656 14.0352 36.8373 13.8892 36.276 13.593C35.7804 13.3207 35.3759 12.9086 35.113 12.408C34.8355 11.8616 34.698 11.2547 34.713 10.642C34.6982 10.029 34.8357 9.42188 35.113 8.875C35.3763 8.37487 35.7807 7.96314 36.276 7.691C36.8436 7.41203 37.4676 7.26697 38.1 7.26697C38.7324 7.26697 39.3564 7.41203 39.924 7.691C40.4191 7.96343 40.8235 8.37508 41.087 8.875C41.3661 9.42145 41.5052 10.0286 41.492 10.642C41.5055 11.2551 41.3663 11.862 41.087 12.408C40.8238 12.9084 40.4194 13.3205 39.924 13.593C39.3628 13.8893 38.7344 14.0354 38.1 14.017ZM38.117 12.278C38.3083 12.2814 38.4932 12.2096 38.632 12.078C38.7923 11.9203 38.9084 11.7235 38.969 11.507C39.0542 11.221 39.0943 10.9234 39.088 10.625C39.0946 10.3256 39.0544 10.027 38.969 9.74C38.908 9.5246 38.7918 9.32883 38.632 9.172C38.4932 9.04044 38.3083 8.96863 38.117 8.972C37.9178 8.9675 37.7244 9.03901 37.576 9.172C37.412 9.32683 37.2928 9.52307 37.231 9.74C37.1456 10.027 37.1054 10.3256 37.112 10.625C37.1057 10.9234 37.1459 11.221 37.231 11.507C37.2923 11.725 37.4115 11.9223 37.576 12.078C37.7234 12.21 37.9152 12.2815 38.113 12.278H38.117Z" fill="black"/>
<path d="M42.443 13.516V5.552C42.443 5.45086 42.4831 5.35385 42.5545 5.28224C42.6259 5.21063 42.7229 5.17026 42.824 5.17H44.414C44.4641 5.17 44.5137 5.17989 44.56 5.1991C44.6063 5.2183 44.6484 5.24646 44.6838 5.28194C44.7191 5.31743 44.7472 5.35955 44.7663 5.40589C44.7854 5.45223 44.7951 5.50188 44.795 5.552V13.516C44.7951 13.5661 44.7854 13.6158 44.7663 13.6621C44.7472 13.7084 44.7191 13.7506 44.6838 13.7861C44.6484 13.8215 44.6063 13.8497 44.56 13.8689C44.5137 13.8881 44.4641 13.898 44.414 13.898H42.824C42.7229 13.8977 42.6259 13.8574 42.5545 13.7858C42.4831 13.7141 42.443 13.6171 42.443 13.516ZM44.556 12.347L44.574 9.547H44.88L46.351 7.51C46.3865 7.46106 46.4331 7.42123 46.487 7.39376C46.5409 7.3663 46.6005 7.35199 46.661 7.352H48.329C48.4003 7.35212 48.4701 7.37224 48.5305 7.41006C48.5909 7.44789 48.6395 7.5019 48.6707 7.56596C48.702 7.63002 48.7147 7.70156 48.7073 7.77245C48.6999 7.84335 48.6728 7.91075 48.629 7.967L46.448 10.778H45.783L44.556 12.347ZM46.373 13.707L45.123 11.549C45.0825 11.4786 45.0655 11.3971 45.0745 11.3163C45.0835 11.2356 45.118 11.1598 45.173 11.1L46.173 10.005C46.2129 9.96177 46.2622 9.92833 46.3171 9.90729C46.372 9.88625 46.4311 9.87817 46.4896 9.88369C46.5482 9.88921 46.6046 9.90817 46.6547 9.9391C46.7047 9.97002 46.7469 10.0121 46.778 10.062L48.806 13.314C48.842 13.3717 48.8619 13.4381 48.8636 13.5061C48.8654 13.5741 48.849 13.6413 48.8161 13.7009C48.7831 13.7604 48.7349 13.8101 48.6763 13.8447C48.6178 13.8794 48.551 13.8978 48.483 13.898H46.7C46.6336 13.8974 46.5684 13.8795 46.5111 13.846C46.4537 13.8125 46.4061 13.7646 46.373 13.707Z" fill="black"/>
<path d="M55.7 9.48301H53.54C53.5308 9.35595 53.4815 9.23512 53.399 9.138C53.3127 9.03913 53.204 8.96233 53.082 8.914C52.9455 8.85996 52.7998 8.83312 52.653 8.83501C52.4735 8.83034 52.2953 8.86802 52.133 8.945C52.0698 8.97003 52.0156 9.01361 51.9776 9.07001C51.9396 9.12641 51.9195 9.19299 51.92 9.261C51.9198 9.31213 51.9309 9.36266 51.9526 9.40899C51.9742 9.45532 52.0057 9.4963 52.045 9.52901C52.1917 9.63633 52.3643 9.70292 52.545 9.72201L53.875 9.96001C54.421 10.028 54.9389 10.2406 55.375 10.576C55.5388 10.7199 55.6686 10.8982 55.755 11.0983C55.8415 11.2984 55.8825 11.5152 55.875 11.733C55.8809 12.173 55.7339 12.6014 55.459 12.945C55.1622 13.3038 54.7753 13.5771 54.338 13.737C53.8216 13.9318 53.2729 14.0268 52.721 14.017C51.8938 14.065 51.0726 13.8501 50.375 13.403C50.1077 13.2198 49.8843 12.9796 49.7211 12.6996C49.5579 12.4196 49.4588 12.1069 49.431 11.784H51.766C51.7788 11.882 51.8132 11.976 51.8668 12.059C51.9205 12.142 51.9919 12.2121 52.076 12.264C52.2758 12.3829 52.5057 12.4413 52.738 12.432C52.9228 12.4389 53.1065 12.4005 53.273 12.32C53.3335 12.2965 53.386 12.256 53.4239 12.2033C53.4619 12.1506 53.4838 12.0881 53.4869 12.0232C53.4901 11.9584 53.4744 11.894 53.4418 11.8379C53.4092 11.7818 53.361 11.7363 53.303 11.707C53.1268 11.6144 52.9355 11.5538 52.738 11.528L51.579 11.323C51.0236 11.2578 50.5007 11.0264 50.079 10.659C49.9139 10.4948 49.7847 10.2981 49.6995 10.0814C49.6143 9.86472 49.575 9.63269 49.584 9.4C49.5696 8.98424 49.6969 8.57592 49.945 8.242C50.2167 7.90589 50.579 7.65465 50.989 7.51801C51.5073 7.34098 52.0525 7.25603 52.6 7.26701C53.3895 7.22396 54.1726 7.42961 54.839 7.85501C55.1025 8.03752 55.3182 8.28068 55.4681 8.56401C55.6179 8.84733 55.6975 9.16251 55.7 9.48301Z" fill="black"/>
</g>
<defs>
<clipPath id="clip0_49_14">
<rect width="55.875" height="14.017" fill="white"/>
</clipPath>
</defs>
</svg>
